# xmcd CD database file
#
# Track frame offsets:
#	225
#	2626
#	26591
#	74601
#	101168
#	129296
#	164261
#	174619
#	207740
#
# Disc length: 3161 seconds
#
# Revision: 0
# Processed by: cddbd v1.5.1PL0 Copyright (c) Steve Scherf et al.
# Submitted via: CDex 1.51
#
DISCID=7d0c5609
DTITLE=Jarek Smietana Trio - You Never Know
DYEAR=1997
DGENRE=Jazz
TTITLE0=Presentation
TTITLE1=Sweet Georgia Bright
TTITLE2=In A Sentimental Mood
TTITLE3=So Sue Me
TTITLE4=Black Orpheus
TTITLE5=If You Want To Ask, You Don't Have To Know
TTITLE6=Ronnie's Solo - The Slump
TTITLE7=Chameleon
TTITLE8=Beatrice
EXTD=YEAR: 1997
EXTT0=
EXTT1=
EXTT2=
EXTT3=
EXTT4=
EXTT5=
EXTT6=
EXTT7=
EXTT8=
PLAYORDER=
